<svg width="233" height="69" viewBox="0 0 233 69" fill="none" xmlns="http://www.w3.org/2000/svg">
<path d="M23.6021 14.5C23.5159 14.1861 23.3897 13.8922 23.2235 13.6183C23.0573 13.3413 22.8511 13.0997 22.6049 12.8935C22.3618 12.6842 22.0802 12.5211 21.7601 12.4041C21.4431 12.2872 21.0892 12.2287 20.6983 12.2287C20.0828 12.2287 19.5319 12.3887 19.0456 12.7088C18.5593 13.0289 18.1746 13.4905 17.8915 14.0938C17.6114 14.697 17.4714 15.4233 17.4714 16.2727C17.4714 17.1191 17.613 17.8439 17.8961 18.4471C18.1792 19.0503 18.567 19.5135 19.0595 19.8366C19.555 20.1567 20.1212 20.3168 20.7583 20.3168C21.34 20.3168 21.854 20.1875 22.3002 19.929C22.7465 19.6705 23.0943 19.3011 23.3435 18.821C23.5959 18.3409 23.719 17.77 23.7129 17.1083L23.9899 17.196H20.9614V16.4205H24.5531V17.196C24.5531 18.0024 24.3899 18.6995 24.0637 19.2873C23.7375 19.8751 23.2897 20.3291 22.7203 20.6491C22.151 20.9692 21.497 21.1293 20.7583 21.1293C19.9335 21.1293 19.2118 20.9308 18.5932 20.5337C17.9746 20.1336 17.4929 19.5704 17.1482 18.8441C16.8066 18.1147 16.6358 17.2576 16.6358 16.2727C16.6358 15.531 16.7343 14.8616 16.9313 14.2646C17.1282 13.6675 17.4068 13.1566 17.7668 12.7319C18.13 12.3072 18.5593 11.9825 19.0548 11.7578C19.5503 11.5301 20.0982 11.4162 20.6983 11.4162C21.2154 11.4162 21.6878 11.4978 22.1156 11.6609C22.5464 11.824 22.925 12.0487 23.2512 12.3349C23.5805 12.618 23.8498 12.9458 24.0591 13.3182C24.2715 13.6875 24.4146 14.0814 24.4884 14.5H23.6021ZM29.6863 21V11.5455H35.1706V12.321H30.5495V15.8803H34.8798V16.6559H30.5495V20.2244H35.263V21H29.6863ZM40.4089 21H39.504L42.9433 11.5455H43.8666L47.3059 21H46.4011L43.4373 12.6673H43.3726L40.4089 21ZM41.0598 17.3761H45.7501V18.1516H41.0598V17.3761ZM51.9163 21V11.5455H54.9678C55.6387 11.5455 56.1988 11.667 56.6482 11.9102C57.1006 12.1502 57.4407 12.4841 57.6684 12.9119C57.8992 13.3366 58.0146 13.8245 58.0146 14.3754C58.0146 14.9263 57.8992 15.4125 57.6684 15.8342C57.4407 16.2558 57.1021 16.5851 56.6528 16.8221C56.2034 17.0591 55.6464 17.1776 54.9816 17.1776H52.3825V16.3881H54.9585C55.4509 16.3881 55.8603 16.3066 56.1865 16.1435C56.5158 15.9804 56.7605 15.748 56.9205 15.4464C57.0836 15.1448 57.1652 14.7878 57.1652 14.3754C57.1652 13.9629 57.0836 13.6029 56.9205 13.2951C56.7574 12.9843 56.5112 12.7442 56.1819 12.5749C55.8557 12.4057 55.4433 12.321 54.9447 12.321H52.7795V21H51.9163ZM56.0849 16.7344L58.4116 21H57.4145L55.1109 16.7344H56.0849ZM76.0552 11.5455H76.9185V17.8054C76.9185 18.4486 76.7677 19.0241 76.466 19.532C76.1644 20.0367 75.7443 20.4353 75.2057 20.7276C74.6702 21.0169 74.047 21.1616 73.3361 21.1616C72.6282 21.1616 72.005 21.0154 71.4664 20.723C70.9278 20.4306 70.5077 20.0321 70.2061 19.5273C69.9045 19.0226 69.7537 18.4486 69.7537 17.8054V11.5455H70.617V17.7454C70.617 18.247 70.7293 18.6948 70.954 19.0888C71.1786 19.4796 71.4941 19.7874 71.9003 20.0121C72.3097 20.2367 72.7882 20.3491 73.3361 20.3491C73.8839 20.3491 74.3625 20.2367 74.7718 20.0121C75.1811 19.7874 75.4966 19.4796 75.7182 19.0888C75.9428 18.6948 76.0552 18.247 76.0552 17.7454V11.5455ZM82.4175 21V11.5455H85.469C86.1399 11.5455 86.7001 11.6747 87.1494 11.9332C87.6018 12.1887 87.9419 12.5365 88.1696 12.9766C88.4005 13.4167 88.5159 13.9122 88.5159 14.4631C88.5159 15.014 88.402 15.511 88.1743 15.9542C87.9465 16.3943 87.608 16.7436 87.1586 17.0021C86.7093 17.2576 86.1507 17.3853 85.4829 17.3853H83.0823V16.6097H85.4598C85.9553 16.6097 86.3661 16.5174 86.6924 16.3327C87.0186 16.145 87.2617 15.8896 87.4218 15.5664C87.5849 15.2433 87.6665 14.8755 87.6665 14.4631C87.6665 14.0507 87.5849 13.6829 87.4218 13.3597C87.2617 13.0366 87.0171 12.7827 86.6878 12.598C86.3615 12.4134 85.9476 12.321 85.4459 12.321H83.2808V21H82.4175ZM100.193 21H99.2878L102.727 11.5455H103.65L107.09 21H106.185L103.221 12.6673H103.156L100.193 21ZM100.844 17.3761H105.534V18.1516H100.844V17.3761ZM119.063 11.5455V21H118.223L112.637 13.0827H112.563V21H111.7V11.5455H112.536L118.14 19.4719H118.214V11.5455H119.063ZM127.337 21H124.567V11.5455H127.503C128.405 11.5455 129.176 11.7332 129.816 12.1087C130.459 12.4841 130.952 13.0227 131.293 13.7244C131.635 14.4261 131.806 15.2679 131.806 16.2496C131.806 17.2406 131.63 18.0916 131.279 18.8026C130.932 19.5104 130.424 20.0536 129.756 20.4322C129.091 20.8107 128.285 21 127.337 21ZM125.43 20.2244H127.286C128.099 20.2244 128.779 20.0644 129.327 19.7443C129.874 19.4242 130.285 18.9672 130.559 18.3732C130.833 17.7792 130.97 17.0714 130.97 16.2496C130.967 15.4341 130.832 14.7324 130.564 14.1445C130.299 13.5567 129.905 13.1058 129.382 12.7919C128.862 12.478 128.219 12.321 127.452 12.321H125.43V20.2244ZM150.076 14.5C149.99 14.1861 149.863 13.8922 149.697 13.6183C149.531 13.3413 149.325 13.0997 149.079 12.8935C148.836 12.6842 148.554 12.5211 148.234 12.4041C147.917 12.2872 147.563 12.2287 147.172 12.2287C146.557 12.2287 146.006 12.3887 145.519 12.7088C145.033 13.0289 144.648 13.4905 144.365 14.0938C144.085 14.697 143.945 15.4233 143.945 16.2727C143.945 17.1191 144.087 17.8439 144.37 18.4471C144.653 19.0503 145.041 19.5135 145.533 19.8366C146.029 20.1567 146.595 20.3168 147.232 20.3168C147.814 20.3168 148.328 20.1875 148.774 19.929C149.22 19.6705 149.568 19.3011 149.817 18.821C150.07 18.3409 150.193 17.77 150.187 17.1083L150.464 17.196H147.435V16.4205H151.027V17.196C151.027 18.0024 150.864 18.6995 150.537 19.2873C150.211 19.8751 149.763 20.3291 149.194 20.6491C148.625 20.9692 147.971 21.1293 147.232 21.1293C146.407 21.1293 145.686 20.9308 145.067 20.5337C144.448 20.1336 143.967 19.5704 143.622 18.8441C143.28 18.1147 143.11 17.2576 143.11 16.2727C143.11 15.531 143.208 14.8616 143.405 14.2646C143.602 13.6675 143.881 13.1566 144.241 12.7319C144.604 12.3072 145.033 11.9825 145.529 11.7578C146.024 11.5301 146.572 11.4162 147.172 11.4162C147.689 11.4162 148.162 11.4978 148.589 11.6609C149.02 11.824 149.399 12.0487 149.725 12.3349C150.054 12.618 150.324 12.9458 150.533 13.3182C150.745 13.6875 150.888 14.0814 150.962 14.5H150.076ZM156.16 21V11.5455H161.644V12.321H157.023V15.8803H161.354V16.6559H157.023V20.2244H161.737V21H156.16ZM166.296 12.321V11.5455H173.152V12.321H170.156V21H169.292V12.321H166.296ZM192.483 16.2727C192.483 17.2576 192.307 18.1147 191.956 18.8441C191.606 19.5704 191.122 20.1336 190.507 20.5337C189.894 20.9308 189.19 21.1293 188.392 21.1293C187.595 21.1293 186.889 20.9308 186.273 20.5337C185.661 20.1336 185.179 19.5704 184.829 18.8441C184.481 18.1147 184.307 17.2576 184.307 16.2727C184.307 15.2879 184.481 14.4323 184.829 13.706C185.179 12.9766 185.663 12.4134 186.278 12.0163C186.894 11.6162 187.598 11.4162 188.392 11.4162C189.19 11.4162 189.894 11.6162 190.507 12.0163C191.122 12.4134 191.606 12.9766 191.956 13.706C192.307 14.4323 192.483 15.2879 192.483 16.2727ZM191.642 16.2727C191.642 15.4264 191.501 14.7016 191.218 14.0984C190.935 13.4921 190.548 13.0289 190.059 12.7088C189.57 12.3887 189.014 12.2287 188.392 12.2287C187.774 12.2287 187.22 12.3887 186.731 12.7088C186.241 13.0289 185.853 13.4905 185.567 14.0938C185.284 14.697 185.142 15.4233 185.142 16.2727C185.142 17.1191 185.284 17.8439 185.567 18.4471C185.85 19.0503 186.237 19.5135 186.726 19.8366C187.215 20.1567 187.771 20.3168 188.392 20.3168C189.014 20.3168 189.57 20.1567 190.059 19.8366C190.551 19.5166 190.939 19.0549 191.222 18.4517C191.505 17.8454 191.646 17.1191 191.642 16.2727ZM203.862 11.5455H204.725V17.8054C204.725 18.4486 204.574 19.0241 204.273 19.532C203.971 20.0367 203.551 20.4353 203.013 20.7276C202.477 21.0169 201.854 21.1616 201.143 21.1616C200.435 21.1616 199.812 21.0154 199.273 20.723C198.735 20.4306 198.314 20.0321 198.013 19.5273C197.711 19.0226 197.56 18.4486 197.56 17.8054V11.5455H198.424V17.7454C198.424 18.247 198.536 18.6948 198.761 19.0888C198.985 19.4796 199.301 19.7874 199.707 20.0121C200.116 20.2367 200.595 20.3491 201.143 20.3491C201.691 20.3491 202.169 20.2367 202.579 20.0121C202.988 19.7874 203.303 19.4796 203.525 19.0888C203.75 18.6948 203.862 18.247 203.862 17.7454V11.5455ZM209.652 12.321V11.5455H216.507V12.321H213.511V21H212.648V12.321H209.652Z" fill="#333333"/>
<path d="M25.0544 37.6H38.8544V40.12H38.4544C37.761 40.12 37.1877 40.2133 36.7344 40.4C36.3077 40.5867 36.0944 40.9733 36.0944 41.56V56.64C36.0944 58.5067 35.8277 60.0667 35.2944 61.32C34.7877 62.5733 34.0677 63.5733 33.1344 64.32C32.201 65.0667 31.081 65.6 29.7744 65.92C28.4944 66.24 27.081 66.4 25.5344 66.4C24.0677 66.4 22.761 66.2667 21.6144 66C20.4677 65.7067 19.4677 65.3333 18.6144 64.88C17.7877 64.4267 17.0944 63.9733 16.5344 63.52V57.8H22.2544V63.28C21.7477 63.1467 21.3344 62.96 21.0144 62.72C20.6944 62.48 20.4544 62.24 20.2944 62C20.161 61.7333 20.121 61.5067 20.1744 61.32C20.2544 61.1333 20.4277 61.04 20.6944 61.04C20.961 61.4133 21.2677 61.7733 21.6144 62.12C21.9877 62.4667 22.4144 62.7467 22.8944 62.96C23.401 63.1733 23.9744 63.28 24.6144 63.28C25.441 63.28 26.1344 63.1067 26.6944 62.76C27.2544 62.3867 27.6677 61.7467 27.9344 60.84C28.2277 59.9067 28.3744 58.6 28.3744 56.92V41.56C28.3744 41.16 28.2677 40.8667 28.0544 40.68C27.841 40.4667 27.5344 40.32 27.1344 40.24C26.761 40.16 26.321 40.12 25.8144 40.12H25.0544V37.6ZM47.7328 53.92H58.6928L58.7328 56.8H47.5328L47.7328 53.92ZM52.2928 40.36L53.5728 41.96L46.7328 62.76C46.7328 62.8933 46.8528 63.0267 47.0928 63.16C47.3328 63.2667 47.6261 63.3467 47.9728 63.4C48.3461 63.4533 48.7328 63.48 49.1328 63.48H49.6928V66H41.4928V63.48H41.6928C42.2528 63.48 42.6928 63.3733 43.0128 63.16C43.3595 62.92 43.6395 62.4533 43.8528 61.76L51.8528 37.6H59.1328L67.4128 62.36C67.5461 62.8133 67.7861 63.12 68.1328 63.28C68.4795 63.4133 68.9195 63.48 69.4528 63.48H69.6528V66H56.6128V63.48H57.2528C57.6528 63.48 58.0395 63.4667 58.4128 63.44C58.7861 63.4133 59.0928 63.3733 59.3328 63.32C59.5728 63.24 59.6928 63.16 59.6928 63.08L52.2928 40.36ZM87.1472 40.36C86.0805 40.36 85.1205 40.6267 84.2672 41.16C83.4405 41.6933 82.7339 42.4667 82.1472 43.48C81.5605 44.4667 81.1072 45.6667 80.7872 47.08C80.4939 48.4667 80.3472 50.04 80.3472 51.8C80.3472 53.64 80.5072 55.2667 80.8272 56.68C81.1472 58.0933 81.6005 59.2933 82.1872 60.28C82.8005 61.24 83.5605 61.9733 84.4672 62.48C85.3739 62.9867 86.4139 63.24 87.5872 63.24C88.8672 63.24 90.0005 62.92 90.9872 62.28C92.0005 61.6133 92.8405 60.6933 93.5072 59.52C94.1739 58.3467 94.6672 57 94.9872 55.48L97.7472 56.6C97.3472 58.52 96.6672 60.2267 95.7072 61.72C94.7739 63.1867 93.5472 64.3333 92.0272 65.16C90.5072 65.9867 88.6805 66.4 86.5472 66.4C84.4672 66.4 82.5472 66.0533 80.7872 65.36C79.0539 64.6667 77.5472 63.68 76.2672 62.4C75.0139 61.0933 74.0272 59.5467 73.3072 57.76C72.6139 55.9733 72.2672 53.9867 72.2672 51.8C72.2672 49.6133 72.6272 47.6267 73.3472 45.84C74.0939 44.0533 75.0939 42.52 76.3472 41.24C77.6272 39.9333 79.0939 38.9333 80.7472 38.24C82.4272 37.5467 84.2005 37.2 86.0672 37.2C87.9605 37.2 89.5205 37.52 90.7472 38.16C92.0005 38.8 93.0005 39.68 93.7472 40.8C94.5205 41.8933 95.1205 43.16 95.5472 44.6L93.5072 44.16L94.2672 37.6H97.3072V46.52H93.8272C93.4272 45.2933 92.9339 44.2267 92.3472 43.32C91.7605 42.3867 91.0405 41.6667 90.1872 41.16C89.3605 40.6267 88.3472 40.36 87.1472 40.36ZM102.232 66V63.48H102.632C103.326 63.48 103.886 63.3867 104.312 63.2C104.766 63.0133 104.992 62.6267 104.992 62.04V41.56C104.992 40.9733 104.766 40.5867 104.312 40.4C103.886 40.2133 103.326 40.12 102.632 40.12H102.232V37.6H115.952V40.12H115.552C115.099 40.12 114.659 40.1333 114.232 40.16C113.806 40.1867 113.446 40.2267 113.152 40.28C112.859 40.3333 112.712 40.4133 112.712 40.52V63.08C112.712 63.16 112.832 63.24 113.072 63.32C113.312 63.3733 113.606 63.4133 113.952 63.44C114.299 63.4667 114.646 63.48 114.992 63.48H115.312V66H102.232ZM118.192 66V63.48H118.552C118.899 63.48 119.232 63.4667 119.552 63.44C119.899 63.4133 120.179 63.3733 120.392 63.32C120.632 63.24 120.752 63.16 120.752 63.08L113.832 52.48V51.52L123.472 40.48C123.472 40.3733 123.326 40.3067 123.032 40.28C122.739 40.2267 122.366 40.1867 121.912 40.16C121.486 40.1333 121.072 40.12 120.672 40.12H120.232V37.6H130.312V40.12H129.552C129.099 40.12 128.699 40.16 128.352 40.24C128.006 40.32 127.686 40.4533 127.392 40.64C127.099 40.8267 126.792 41.1067 126.472 41.48L117.752 51.44L119.472 47.72L128.912 62.2C129.152 62.52 129.379 62.7733 129.592 62.96C129.832 63.1467 130.086 63.28 130.352 63.36C130.646 63.44 130.992 63.48 131.392 63.48H131.792V66H118.192ZM158.678 57V66H135.638V63.48H136.038C136.705 63.48 137.265 63.3867 137.718 63.2C138.172 63.0133 138.398 62.6267 138.398 62.04V41.56C138.398 40.9733 138.172 40.5867 137.718 40.4C137.265 40.2133 136.705 40.12 136.038 40.12H135.638V37.6H157.598V45.6H154.478L154.118 42.28C154.065 41.8 153.878 41.44 153.558 41.2C153.238 40.9333 152.772 40.76 152.158 40.68C151.572 40.5733 150.852 40.52 149.998 40.52H146.118V63.08H150.358C151.158 63.08 151.838 63.0533 152.398 63C152.985 62.9467 153.452 62.8533 153.798 62.72C154.172 62.5867 154.452 62.4133 154.638 62.2C154.852 61.96 154.972 61.6667 154.998 61.32L155.478 57H158.678ZM145.038 50.2C146.105 50.12 147.145 50.0533 148.158 50C149.172 49.9467 150.172 49.8933 151.158 49.84C152.172 49.76 153.158 49.68 154.118 49.6V53.32C153.158 53.24 152.172 53.1733 151.158 53.12C150.172 53.04 149.172 52.9733 148.158 52.92C147.145 52.84 146.105 52.7733 145.038 52.72V50.2ZM172.229 62.04V40.52H170.869C169.909 40.52 169.122 40.56 168.509 40.64C167.896 40.72 167.429 40.8933 167.109 41.16C166.816 41.4267 166.656 41.8 166.629 42.28L166.189 46.68H162.949V37.6H189.229V46.68H185.989L185.549 42.28C185.522 41.8 185.349 41.4267 185.029 41.16C184.736 40.8933 184.282 40.72 183.669 40.64C183.056 40.56 182.269 40.52 181.309 40.52H179.949V62.04C179.949 62.6267 180.162 63.0133 180.589 63.2C181.042 63.3867 181.616 63.48 182.309 63.48H182.909V66H169.269V63.48H169.869C170.562 63.48 171.122 63.3867 171.549 63.2C172.002 63.0133 172.229 62.6267 172.229 62.04ZM205.267 63.32C206.253 63.32 207.08 63.1867 207.747 62.92C208.44 62.6533 208.96 62.2533 209.307 61.72C209.68 61.16 209.867 60.4533 209.867 59.6C209.867 58.88 209.68 58.28 209.307 57.8C208.96 57.2933 208.453 56.8667 207.787 56.52C207.147 56.1733 206.373 55.8533 205.467 55.56C204.56 55.2667 203.56 54.96 202.467 54.64C201.427 54.32 200.413 53.9467 199.427 53.52C198.44 53.0667 197.547 52.5067 196.747 51.84C195.973 51.1467 195.347 50.2933 194.867 49.28C194.413 48.2667 194.187 47.0267 194.187 45.56C194.187 43.7733 194.613 42.2667 195.467 41.04C196.347 39.7867 197.507 38.84 198.947 38.2C200.413 37.5333 202.013 37.2 203.747 37.2C205.24 37.2 206.547 37.4 207.667 37.8C208.787 38.2 209.76 38.8533 210.587 39.76C211.413 40.6667 212.107 41.9067 212.667 43.48L210.667 43.16L211.467 37.6H214.267V45.12H211.027C210.707 44.08 210.227 43.2 209.587 42.48C208.947 41.7333 208.2 41.1733 207.347 40.8C206.52 40.4267 205.613 40.24 204.627 40.24C203.72 40.24 202.96 40.3733 202.347 40.64C201.733 40.9067 201.267 41.2933 200.947 41.8C200.627 42.28 200.467 42.8667 200.467 43.56C200.467 44.2267 200.64 44.8 200.987 45.28C201.36 45.7333 201.853 46.12 202.467 46.44C203.107 46.76 203.84 47.04 204.667 47.28C205.52 47.52 206.427 47.76 207.387 48C208.56 48.32 209.667 48.7067 210.707 49.16C211.773 49.5867 212.72 50.1333 213.547 50.8C214.4 51.4667 215.067 52.3067 215.547 53.32C216.027 54.3067 216.267 55.5333 216.267 57C216.267 58.8933 215.84 60.5467 214.987 61.96C214.16 63.3733 212.973 64.4667 211.427 65.24C209.88 66.0133 208.027 66.4 205.867 66.4C204.32 66.4 202.84 66.16 201.427 65.68C200.04 65.2 198.8 64.4267 197.707 63.36C196.64 62.2933 195.787 60.8533 195.147 59.04L197.227 59.56L196.467 66H193.507V57.12H196.947C197.427 58.4267 198.08 59.5467 198.907 60.48C199.76 61.4133 200.733 62.12 201.827 62.6C202.947 63.08 204.093 63.32 205.267 63.32Z" fill="#333333"/>
</svg>
