<svg width="345" height="55" viewBox="0 0 345 55" fill="none" xmlns="http://www.w3.org/2000/svg">
<g clip-path="url(#clip0_75_77)">
<path d="M0 54.5387V0.461304H12.4232C21.5194 0.461304 26.0675 5.7484 26.0675 16.3403C26.0675 19.5339 25.5719 22.2484 24.5986 24.4661C23.6076 26.7016 21.891 28.4936 19.4134 29.8597L27.7487 54.5565H19.5727L12.3701 31.4565H7.75122V54.5565H0V54.5387ZM7.73352 7.75324V24.6081H12.1223C13.485 24.6081 14.5645 24.4129 15.3786 24.0403C16.1926 23.6678 16.812 23.1178 17.2721 22.4081C17.6791 21.6984 17.9623 20.829 18.1039 19.7823C18.2631 18.7532 18.3339 17.5468 18.3339 16.1807C18.3339 14.8145 18.2631 13.6081 18.1039 12.579C17.9446 11.55 17.6438 10.6452 17.2013 9.88227C16.2457 8.46292 14.4229 7.75324 11.7507 7.75324H7.73352Z" fill="#333333"/>
<path d="M40.1543 54.5387L52.2058 0.461304H58.6475L70.6991 54.5565H62.9655L60.7003 42.9355H50.1707L47.9055 54.5565H40.172L40.1543 54.5387ZM59.2492 35.6258L55.4621 16.021H55.3028L51.5157 35.6258H59.2492Z" fill="#333333"/>
<path d="M86.0776 54.5387V0.461304H93.8112V54.5387H86.0776Z" fill="#333333"/>
<path d="M112.375 54.5387V0.461304H119.808L131.47 33.0532H131.629V0.461304H139.363V54.5387H132.089L120.268 22.0178H120.109V54.5387H112.375Z" fill="#333333"/>
<path d="M164.882 54.5387V31.6694L154.281 0.461304H162.457L168.669 21.9645H168.828L175.04 0.461304H183.216L172.615 31.6871V54.5565H164.882V54.5387Z" fill="#333333"/>
<path d="M198.452 54.5387V0.461304H209.902C214.344 0.461304 217.724 1.6855 220.025 4.11614C222.325 6.54679 223.476 9.98872 223.476 14.4419V39.7419C223.476 44.7984 222.255 48.5419 219.795 50.9548C217.353 53.3678 213.813 54.5565 209.23 54.5565H198.47L198.452 54.5387ZM206.186 7.7355V47.2468H209.743C211.92 47.2468 213.459 46.6968 214.362 45.6145C215.264 44.5323 215.725 42.8113 215.725 40.4871V14.4419C215.725 12.3129 215.3 10.6629 214.433 9.50969C213.565 8.33872 212.008 7.77098 209.743 7.77098H206.186V7.7355Z" fill="#333333"/>
<path d="M237.704 54.5387L249.756 0.461304H256.197L268.249 54.5565H260.515L258.25 42.9355H247.72L245.455 54.5565H237.722L237.704 54.5387ZM256.799 35.6258L253.012 16.021H252.853L249.065 35.6258H256.799Z" fill="#333333"/>
<path d="M286.424 54.5387V31.6694L275.805 0.461304H283.981L290.193 21.9645H290.352L296.564 0.461304H304.74L294.139 31.6871V54.5565H286.406L286.424 54.5387Z" fill="#333333"/>
<path d="M345 16.021H337.267V14.2823C337.267 12.5081 336.842 10.9823 336.01 9.68709C335.178 8.39193 333.78 7.75322 331.798 7.75322C330.736 7.75322 329.869 7.94838 329.215 8.35645C328.56 8.76451 328.029 9.26129 327.622 9.88225C327.215 10.5387 326.932 11.2839 326.79 12.1177C326.648 12.9516 326.56 13.821 326.56 14.7435C326.56 15.8081 326.595 16.6952 326.666 17.4048C326.737 18.1145 326.932 18.7532 327.232 19.3032C327.533 19.8532 327.976 20.35 328.56 20.7403C329.144 21.1484 329.94 21.5564 330.949 21.9645L336.86 24.3242C338.576 24.9806 339.974 25.7613 341.018 26.6484C342.08 27.5355 342.912 28.5645 343.514 29.7177C344.062 30.9419 344.452 32.3081 344.646 33.8516C344.841 35.3952 344.947 37.1516 344.947 39.1387C344.947 41.4097 344.717 43.5387 344.257 45.4903C343.797 47.4419 343.071 49.0919 342.062 50.4581C341.001 51.8774 339.62 52.9952 337.904 53.7935C336.187 54.6097 334.081 55.0177 331.621 55.0177C329.745 55.0177 328.011 54.6806 326.401 54.0242C324.79 53.3677 323.392 52.4629 322.242 51.2919C321.074 50.121 320.154 48.7726 319.481 47.229C318.791 45.6855 318.455 44 318.455 42.1726V39.2806H326.188V41.7113C326.188 43.1306 326.613 44.4081 327.445 45.5435C328.277 46.679 329.675 47.2468 331.657 47.2468C332.966 47.2468 333.993 47.0516 334.718 46.679C335.444 46.3064 336.01 45.7564 336.417 45.0468C336.824 44.3371 337.054 43.4855 337.143 42.5097C337.213 41.5161 337.249 40.4161 337.249 39.2097C337.249 37.7903 337.196 36.6193 337.09 35.7145C336.983 34.8097 336.789 34.0645 336.488 33.5145C336.134 32.9645 335.674 32.5032 335.09 32.1484C334.506 31.7935 333.745 31.421 332.772 31.0129L327.232 28.7419C323.905 27.3758 321.658 25.5661 320.525 23.3129C319.393 21.0597 318.826 18.2387 318.826 14.85C318.826 12.8274 319.11 10.8935 319.658 9.08387C320.207 7.25645 321.039 5.69516 322.153 4.38226C323.215 3.06935 324.56 2.02258 326.206 1.22419C327.852 0.443545 329.799 0.0532227 332.081 0.0532227C333.993 0.0532227 335.762 0.408061 337.355 1.11774C338.948 1.82742 340.328 2.76774 341.478 3.92096C343.797 6.35161 344.965 9.13709 344.965 12.2774V16.0742L345 16.021Z" fill="#333333"/>
</g>
<defs>
<clipPath id="clip0_75_77">
<rect width="345" height="55" fill="white"/>
</clipPath>
</defs>
</svg>
